<svg xmlns="http://www.w3.org/2000/svg" xmlns:xlink="http://www.w3.org/1999/xlink" width="500" zoomAndPan="magnify" viewBox="0 0 375 172.499995" height="230" preserveAspectRatio="xMidYMid meet" version="1.0"><defs><g/><clipPath id="bfc38f08c8"><path d="M 40 13.109375 L 107 13.109375 L 107 158 L 40 158 Z M 40 13.109375 " clip-rule="nonzero"/></clipPath><clipPath id="c338223c80"><path d="M 0.542969 14 L 146.371094 14 L 146.371094 158.9375 L 0.542969 158.9375 Z M 0.542969 14 " clip-rule="nonzero"/></clipPath><clipPath id="6c15f282e9"><path d="M 335 29 L 374.457031 29 L 374.457031 74 L 335 74 Z M 335 29 " clip-rule="nonzero"/></clipPath></defs><g clip-path="url(#bfc38f08c8)"><path fill="#f9ac02" d="M 92.355469 43.003906 L 59.136719 43.003906 L 40.148438 98.390625 L 61.847656 98.390625 L 43.152344 157.976562 L 106.734375 83.984375 L 78.296875 83.984375 Z M 100.316406 19.730469 L 100.8125 18.359375 C 92.355469 14.949219 83.082031 13.109375 73.457031 13.109375 C 72.085938 13.109375 70.625 13.109375 69.253906 13.199219 L 64.121094 28.480469 L 61.410156 36.355469 L 94.601562 36.355469 L 96.058594 32.273438 Z M 100.316406 19.730469 " fill-opacity="1" fill-rule="nonzero"/></g><g clip-path="url(#c338223c80)"><path fill="#f47e57" d="M 108.105469 21.859375 C 114.34375 25.15625 120.089844 29.445312 125.050781 34.429688 C 138.203125 47.671875 146.371094 65.871094 146.371094 86.023438 C 146.371094 106.179688 138.203125 124.378906 125.050781 137.617188 C 111.808594 150.773438 93.609375 158.9375 73.457031 158.9375 C 67.039062 158.9375 60.886719 158.0625 54.964844 156.605469 L 65.960938 143.859375 L 81.332031 125.953125 L 75.585938 144.269531 C 90.867188 143.683594 104.605469 137.355469 114.609375 127.234375 C 125.222656 116.734375 131.726562 102.125 131.726562 86.054688 C 131.726562 69.984375 125.195312 55.402344 114.609375 44.871094 C 113.441406 43.617188 112.070312 42.453125 110.816406 41.285156 L 97.371094 53.273438 L 103.203125 35.949219 Z M 48.429688 49.128906 L 54.761719 30.8125 L 56.597656 25.566406 L 60.390625 14.277344 C 45.484375 16.902344 32.15625 24.195312 21.832031 34.429688 C 8.707031 47.671875 0.542969 65.871094 0.542969 86.023438 C 0.542969 106.179688 8.707031 124.378906 21.863281 137.617188 C 26.527344 142.195312 31.691406 146.191406 37.4375 149.402344 L 41.925781 135.082031 L 48.34375 114.722656 L 35.015625 129.800781 C 34.140625 128.925781 33.179688 128.050781 32.304688 127.175781 C 21.6875 116.675781 15.183594 102.066406 15.183594 85.996094 C 15.183594 69.925781 21.714844 55.34375 32.304688 44.8125 C 36.503906 40.527344 41.34375 37.027344 46.710938 34.199219 Z M 48.429688 49.128906 " fill-opacity="1" fill-rule="nonzero"/></g><g fill="#f9ac02" fill-opacity="1"><g transform="translate(157.84308, 73.368432)"><g><path d="M 21.296875 -44.484375 C 27.867188 -44.484375 33.648438 -42.847656 38.640625 -39.578125 L 34.4375 -30.84375 C 32.125 -32.1875 29.648438 -33.285156 27.015625 -34.140625 C 24.378906 -35.003906 22.160156 -35.4375 20.359375 -35.4375 C 17.128906 -35.4375 15.515625 -34.367188 15.515625 -32.234375 C 15.515625 -30.847656 16.3125 -29.734375 17.90625 -28.890625 C 19.5 -28.054688 21.4375 -27.335938 23.71875 -26.734375 C 26 -26.128906 28.28125 -25.394531 30.5625 -24.53125 C 32.84375 -23.675781 34.78125 -22.285156 36.375 -20.359375 C 37.96875 -18.429688 38.765625 -16 38.765625 -13.0625 C 38.765625 -8.832031 37.109375 -5.535156 33.796875 -3.171875 C 30.492188 -0.804688 26.285156 0.375 21.171875 0.375 C 17.523438 0.375 13.921875 -0.25 10.359375 -1.5 C 6.804688 -2.757812 3.707031 -4.476562 1.0625 -6.65625 L 5.40625 -15.265625 C 7.625 -13.335938 10.238281 -11.753906 13.25 -10.515625 C 16.269531 -9.285156 18.953125 -8.671875 21.296875 -8.671875 C 23.097656 -8.671875 24.5 -8.992188 25.5 -9.640625 C 26.507812 -10.296875 27.015625 -11.25 27.015625 -12.5 C 27.015625 -13.71875 26.4375 -14.734375 25.28125 -15.546875 C 24.132812 -16.367188 22.703125 -16.976562 20.984375 -17.375 C 19.265625 -17.769531 17.398438 -18.300781 15.390625 -18.96875 C 13.378906 -19.644531 11.515625 -20.378906 9.796875 -21.171875 C 8.078125 -21.960938 6.640625 -23.226562 5.484375 -24.96875 C 4.335938 -26.707031 3.765625 -28.789062 3.765625 -31.21875 C 3.765625 -35.238281 5.363281 -38.453125 8.5625 -40.859375 C 11.769531 -43.273438 16.015625 -44.484375 21.296875 -44.484375 Z M 21.296875 -44.484375 "/></g></g></g><g fill="#f9ac02" fill-opacity="1"><g transform="translate(198.304443, 73.368432)"><g><path d="M 43.984375 -43.984375 L 43.984375 -18.46875 C 43.984375 -12.644531 42.179688 -8.023438 38.578125 -4.609375 C 34.972656 -1.203125 30.09375 0.5 23.9375 0.5 C 17.738281 0.5 12.804688 -1.203125 9.140625 -4.609375 C 5.472656 -8.023438 3.640625 -12.644531 3.640625 -18.46875 L 3.640625 -43.984375 L 14.828125 -43.984375 L 14.828125 -18.46875 C 14.828125 -15.539062 15.675781 -13.207031 17.375 -11.46875 C 19.070312 -9.726562 21.28125 -8.859375 24 -8.859375 C 26.675781 -8.859375 28.820312 -9.71875 30.4375 -11.4375 C 32.050781 -13.15625 32.859375 -15.5 32.859375 -18.46875 L 32.859375 -43.984375 Z M 43.984375 -43.984375 "/></g></g></g><g fill="#f9ac02" fill-opacity="1"><g transform="translate(245.92822, 73.368432)"><g><path d="M 4.390625 -43.984375 L 23.5625 -43.984375 C 29.175781 -43.984375 33.53125 -42.648438 36.625 -39.984375 C 39.726562 -37.328125 41.28125 -33.550781 41.28125 -28.65625 C 41.28125 -23.5 39.726562 -19.492188 36.625 -16.640625 C 33.53125 -13.796875 29.175781 -12.375 23.5625 -12.375 L 15.578125 -12.375 L 15.578125 0 L 4.390625 0 Z M 15.578125 -35.1875 L 15.578125 -21.171875 L 23 -21.171875 C 25.46875 -21.171875 27.367188 -21.773438 28.703125 -22.984375 C 30.046875 -24.203125 30.71875 -25.960938 30.71875 -28.265625 C 30.71875 -30.535156 30.046875 -32.253906 28.703125 -33.421875 C 27.367188 -34.597656 25.46875 -35.1875 23 -35.1875 Z M 15.578125 -35.1875 "/></g></g></g><g fill="#f9ac02" fill-opacity="1"><g transform="translate(288.651396, 73.368432)"><g><path d="M 38.828125 -35.1875 L 15.578125 -35.1875 L 15.578125 -26.453125 L 36.5625 -26.453125 L 36.5625 -17.65625 L 15.578125 -17.65625 L 15.578125 -8.796875 L 39.515625 -8.796875 L 39.515625 0 L 4.390625 0 L 4.390625 -43.984375 L 38.828125 -43.984375 Z M 38.828125 -35.1875 "/></g></g></g><g clip-path="url(#6c15f282e9)"><g fill="#f9ac02" fill-opacity="1"><g transform="translate(330.997602, 73.368432)"><g><path d="M 30.90625 0 L 24.375 -12.375 L 15.578125 -12.375 L 15.578125 0 L 4.390625 0 L 4.390625 -43.984375 L 24.0625 -43.984375 C 29.882812 -43.984375 34.382812 -42.648438 37.5625 -39.984375 C 40.75 -37.328125 42.34375 -33.550781 42.34375 -28.65625 C 42.34375 -21.863281 39.679688 -17.148438 34.359375 -14.515625 L 43.609375 0 Z M 15.578125 -21.171875 L 24.0625 -21.171875 C 26.488281 -21.171875 28.375 -21.773438 29.71875 -22.984375 C 31.0625 -24.203125 31.734375 -25.960938 31.734375 -28.265625 C 31.734375 -30.535156 31.0625 -32.253906 29.71875 -33.421875 C 28.375 -34.597656 26.488281 -35.1875 24.0625 -35.1875 L 15.578125 -35.1875 Z M 15.578125 -21.171875 "/></g></g></g></g><g fill="#ff9862" fill-opacity="1"><g transform="translate(157.84308, 149.567218)"><g><path d="M 38.015625 -35 L 24.75 -35 L 24.75 0 L 13.578125 0 L 13.578125 -35 L 0.4375 -35 L 0.4375 -44.046875 L 38.015625 -44.046875 Z M 38.015625 -35 "/></g></g></g><g fill="#ff9862" fill-opacity="1"><g transform="translate(196.231102, 149.567218)"><g><path d="M 38.828125 -35.1875 L 15.578125 -35.1875 L 15.578125 -26.453125 L 36.5625 -26.453125 L 36.5625 -17.65625 L 15.578125 -17.65625 L 15.578125 -8.796875 L 39.515625 -8.796875 L 39.515625 0 L 4.390625 0 L 4.390625 -43.984375 L 38.828125 -43.984375 Z M 38.828125 -35.1875 "/></g></g></g><g fill="#ff9862" fill-opacity="1"><g transform="translate(238.577308, 149.567218)"><g><path d="M 29.90625 -23 L 45.671875 0 L 32.296875 0 L 22.8125 -14.015625 L 13.3125 0 L 0.3125 0 L 16.015625 -22.5 L 1.3125 -43.984375 L 14.328125 -43.984375 L 22.8125 -31.15625 L 31.28125 -43.984375 L 44.421875 -43.984375 Z M 29.90625 -23 "/></g></g></g><g fill="#ff9862" fill-opacity="1"><g transform="translate(284.693201, 149.567218)"><g><path d="M 38.015625 -35 L 24.75 -35 L 24.75 0 L 13.578125 0 L 13.578125 -35 L 0.4375 -35 L 0.4375 -44.046875 L 38.015625 -44.046875 Z M 38.015625 -35 "/></g></g></g></svg>